<!DOCTYPE svg PUBLIC "-//W3C//DTD SVG 1.1//EN" "http://www.w3.org/Graphics/SVG/1.1/DTD/svg11.dtd">
<!-- Uploaded to: SVG Repo, www.svgrepo.com, Transformed by: SVG Repo Mixer Tools -->
<svg width="64px" height="64px" viewBox="0 0 64 64" xmlns="http://www.w3.org/2000/svg" xmlns:xlink="http://www.w3.org/1999/xlink" aria-hidden="true" role="img" class="iconify iconify--emojione" preserveAspectRatio="xMidYMid meet" fill="#000c66">
<g id="SVGRepo_bgCarrier" stroke-width="0"/>
<g id="SVGRepo_tracerCarrier" stroke-linecap="round" stroke-linejoin="round"/>
<g id="SVGRepo_iconCarrier"> <path fill="#000c66" d="M26 26h4v38h-4z"> </path> <path fill="#000c66" d="M31 30h19v6H31z"> </path> <path fill="#000c66" d="M31 36h19v6H31z"> </path> <path fill="#000c66" d="M14 30h11v6H14z"> </path> <path fill="#000c66" d="M14 36h11v6H14z"> </path> <path fill="#000c66" d="M31 42h19v6H31z"> </path> <g fill="#000c66"> <path d="M26 48h4v2h-4z"> </path> <path d="M25 35h6v2h-6z"> </path> <path d="M25 41h6v2h-6z"> </path> </g> <path d="M28 0c-7.7 0-14 6.3-14 14c0 3.9 1.6 7.4 4.1 9.9l9.9 1l9.9-1c2.5-2.5 4.1-6 4.1-9.9c0-7.7-6.3-14-14-14" fill="#000c66"> </path> <path d="M37.9 23.9l-2.8-2.8C31.2 25 24.9 25 21 21.1l-2.8 2.8c2.2 2.2 5 3.5 7.9 3.9V30h4v-2.2c2.8-.4 5.6-1.7 7.8-3.9" fill="#000c66"> </path> <path d="M34 15c0 1.1-.9 2-2 2h-8c-1.1 0-2-.9-2-2V7c0-1.1.9-2 2-2h8c1.1 0 2 .9 2 2v8" fill="#ffffff"> </path> <g fill="#000c66"> <path d="M32 10c0 .6-.4 1-1 1h-6c-.5 0-1-.4-1-1V8c0-.6.5-1 1-1h6c.6 0 1 .4 1 1v2"> </path> <circle cx="25" cy="14" r="1"> </circle> <circle cx="31" cy="14" r="1"> </circle> </g> <g fill="#ffffff"> <path d="M31 16v3c0 .5.5 1 1 1c.6 0 1-.5 1-1v-3h-2"> </path> <path d="M23 16v3c0 .5.5 1 1 1c.6 0 1-.5 1-1v-3h-2"> </path> </g> <g fill="#000c66"> <path d="M25 42h6v6h-6z"> </path> <path d="M25 36h6v6h-6z"> </path> <path d="M25 30h6v6h-6z"> </path> </g> <g fill="#000c66"> <path d="M27 30h2v5h-2z"> </path> <path d="M27 37h2v4h-2z"> </path> <path d="M27 43h2v5h-2z"> </path> </g> <g fill="#ffffff"> <path d="M15.9 31.6h1.6v3h-1.6z"> </path> <path d="M19.5 31.6h3.3v3h-3.3z"> </path> <path d="M15.9 37.5h3.3v3h-3.3z"> </path> <path d="M21.2 37.5h1.7v3h-1.7z"> </path> <path d="M42.6 31.5h6.2v1h-6.2z"> </path> <path d="M35.2 31.5h6.2v1h-6.2z"> </path> <path d="M38.6 33.5h10.1v1H38.6z"> </path> <path d="M37.4 43.5h11.3v1H37.4z"> </path> <path d="M45 45.5h3.7v1H45z"> </path> <path d="M33.3 45.5h10.6v1H33.3z"> </path> <path d="M41.5 37.5h7.2v1h-7.2z"> </path> <path d="M32.9 37.5h7.2v1h-7.2z"> </path> <path d="M45 39.5h3.8v1H45z"> </path> <path d="M40.1 39.5h3.8v1h-3.8z"> </path> <path d="M35.5 39.5h3.8v1h-3.8z"> </path> </g> </g>
</svg>