<!DOCTYPE svg PUBLIC "-//W3C//DTD SVG 1.1//EN" "http://www.w3.org/Graphics/SVG/1.1/DTD/svg11.dtd">
<!-- Uploaded to: SVG Repo, www.svgrepo.com, Transformed by: SVG Repo Mixer Tools -->
<svg version="1.1" id="Layer_1" xmlns="http://www.w3.org/2000/svg" xmlns:xlink="http://www.w3.org/1999/xlink" viewBox="0 0 512 512" xml:space="preserve" width="800px" height="800px" fill="#000000">
<g id="SVGRepo_bgCarrier" stroke-width="0"/>
<g id="SVGRepo_tracerCarrier" stroke-linecap="round" stroke-linejoin="round"/>
<g id="SVGRepo_iconCarrier"> <path style="fill:#e47e6c;" d="M471.066,107.789H42.214c-15.348,0-27.788,12.442-27.788,27.788v218.112h484.428v-218.11 C498.854,120.23,486.414,107.789,471.066,107.789z"/> <g> <path style="fill:#2b2927;" d="M463.805,298.242h35.05v36.75h-35.05c-2.938,0-5.319-2.381-5.319-5.319v-26.112 C458.486,300.623,460.867,298.242,463.805,298.242z"/> <path style="fill:#2b2927;" d="M49.476,298.242h-35.05v36.75h35.05c2.938,0,5.319-2.381,5.319-5.319v-26.112 C54.795,300.623,52.413,298.242,49.476,298.242z"/> </g> <path style="fill:#ea99a6;" d="M498.854,266.372h-29.318c-6.103,0-11.05-4.947-11.05-11.05v-74.425h40.369V266.372z"/> <path style="fill:#2a2222;" d="M469.536,135.578h29.318v45.319h-40.369v-34.269C458.486,140.525,463.433,135.578,469.536,135.578z"/> <g> <path style="fill:#ea99a6;" d="M328.824,212.686h78.379c5.153,0,9.329-4.177,9.329-9.329v-45.119h-97.037v45.119 C319.495,208.509,323.672,212.686,328.824,212.686z"/> <path style="fill:#ea99a6;" d="M199.264,212.686h78.379c5.153,0,9.329-4.177,9.329-9.329v-45.119h-97.037v45.119 C189.935,208.509,194.111,212.686,199.264,212.686z"/> <path style="fill:#ea99a6;" d="M69.703,212.686h78.379c5.153,0,9.329-4.177,9.329-9.329v-45.119H60.374v45.119 C60.374,208.509,64.552,212.686,69.703,212.686z"/> </g> <rect x="14.43" y="149.99" style="fill:#4e1828;" width="444.063" height="16.498"/> <path style="opacity:0.2;enable-background:new ;" d="M295.878,303.166h-89.129c-4.557,0-8.249-3.692-8.249-8.249 c0-4.557,3.692-8.249,8.249-8.249h89.129c4.557,0,8.249,3.692,8.249,8.249C304.127,299.473,300.434,303.166,295.878,303.166z"/> <path style="opacity:0.2;enable-background:new ;" d="M275.744,328.253h-48.862c-4.557,0-8.249-3.692-8.249-8.249 c0-4.557,3.692-8.249,8.249-8.249h48.862c4.557,0,8.249,3.692,8.249,8.249C283.993,324.561,280.301,328.253,275.744,328.253z"/> <path style="opacity:0.15;enable-background:new ;" d="M33.53,336.736V118.624c0-3.522,0.662-6.886,1.857-9.987 c-12.045,3.044-20.959,13.95-20.959,26.94v218.112h484.428v-16.953H33.53V336.736z"/> <g> <circle style="fill:#4e1828;" cx="136.659" cy="353.686" r="50.522"/> <circle style="fill:#4e1828;" cx="136.659" cy="353.686" r="50.522"/> </g> <circle style="fill:#D1D3D3;" cx="136.659" cy="353.686" r="21.863"/> <path style="opacity:0.15;enable-background:new ;" d="M144.363,394.495c-27.903,0-50.522-22.619-50.522-50.522 c0-9.61,2.684-18.593,7.343-26.241c-9.283,9.161-15.042,21.884-15.042,35.957c0,27.902,22.619,50.522,50.522,50.522 c18.292,0,34.313-9.722,43.179-24.28C170.72,388.933,158.193,394.495,144.363,394.495z"/> <g> <circle style="fill:#4e1828;" cx="366.005" cy="353.686" r="50.522"/> <circle style="fill:#4e1828;" cx="366.005" cy="353.686" r="50.522"/> </g> <circle style="fill:#D1D3D3;" cx="366.005" cy="353.686" r="21.863"/> <path style="opacity:0.15;enable-background:new ;" d="M373.71,394.495c-27.902,0-50.522-22.619-50.522-50.522 c0-9.61,2.684-18.593,7.343-26.241c-9.283,9.161-15.042,21.884-15.042,35.957c0,27.902,22.619,50.522,50.522,50.522 c18.292,0,34.313-9.722,43.179-24.28C400.067,388.933,387.539,394.495,373.71,394.495z"/> <path style="fill:#C3C6C8;" d="M504.364,372.388h-51.813c-4.218,0-7.636-3.419-7.636-7.636v-22.123c0-4.218,3.42-7.636,7.636-7.636 h51.813c4.218,0,7.636,3.418,7.636,7.636v22.123C512,368.968,508.582,372.388,504.364,372.388z"/> <path style="opacity:0.15;enable-background:new ;" d="M462.083,363.955c-4.218,0-7.636-3.418-7.636-7.636v-21.327h-1.896 c-4.218,0-7.636,3.418-7.636,7.636v22.123c0,4.218,3.418,7.636,7.636,7.636h51.813c4.218,0,7.636-3.419,7.636-7.636v-0.796H462.083z "/> <path style="fill:#C3C6C8;" d="M52.738,372.388H7.636c-4.218,0-7.636-3.419-7.636-7.636v-22.123c0-4.218,3.42-7.636,7.636-7.636 h45.101c4.218,0,7.636,3.418,7.636,7.636v22.123C60.374,368.968,56.956,372.388,52.738,372.388z"/> <path style="opacity:0.15;enable-background:new ;" d="M16.069,363.833c-4.218,0-7.636-3.42-7.636-7.636v-21.204H7.636 C3.42,334.992,0,338.41,0,342.628v22.123c0,4.218,3.42,7.636,7.636,7.636h45.101c4.218,0,7.636-3.42,7.636-7.636v-0.918 L16.069,363.833L16.069,363.833z"/> <path style="fill:#2b2927;" d="M403.779,240.866H14.426v25.506h389.353c7.044,0,12.753-5.709,12.753-12.753l0,0 C416.532,246.575,410.823,240.866,403.779,240.866z"/> </g>
</svg>