<?xml version="1.0" standalone="no"?>
<!DOCTYPE svg PUBLIC "-//W3C//DTD SVG 20010904//EN"
 "http://www.w3.org/TR/2001/REC-SVG-20010904/DTD/svg10.dtd">
<svg version="1.0" xmlns="http://www.w3.org/2000/svg"
 width="512.000000pt" height="512.000000pt" viewBox="0 0 512.000000 512.000000"
 preserveAspectRatio="xMidYMid meet">

<g transform="translate(0.000000,512.000000) scale(0.100000,-0.100000)"
fill="#000000" stroke="none">
<path d="M1760 5106 c-19 -8 -399 -176 -845 -374 -862 -383 -880 -393 -903
-470 -9 -30 -12 -535 -12 -2078 0 -2029 0 -2038 20 -2080 31 -62 88 -98 159
-99 52 0 107 23 848 353 435 193 796 352 801 352 5 0 364 -158 798 -351 724
-323 794 -352 846 -353 56 -1 74 7 808 374 513 256 762 385 783 407 17 17 37
47 43 65 10 25 13 516 13 2077 l1 2045 -21 44 c-31 63 -87 97 -160 97 -56 0
-81 -11 -766 -353 l-708 -353 -789 351 c-565 251 -802 352 -835 356 -26 2 -61
-2 -81 -10z m-110 -2260 c0 -1431 -3 -1806 -12 -1813 -10 -8 -1201 -539 -1256
-560 -10 -4 -12 358 -10 1806 l3 1812 625 279 c344 153 631 279 638 279 9 1
12 -366 12 -1803z m1008 1523 l632 -281 0 -1810 c0 -1679 -1 -1810 -17 -1804
-9 4 -297 131 -640 283 l-623 276 0 1808 c0 995 3 1809 8 1809 4 0 292 -126
640 -281z m2092 -1537 l0 -1807 -545 -273 -545 -272 0 1808 0 1807 543 272
c298 150 543 272 545 272 1 1 2 -812 2 -1807z"/>
</g>
</svg>
